{
  "accessors": [
    {
      "bufferView": 2,
      "componentType": 5126,
      "count": 632,
      "max": [
        0.83844208717346191,
        -0.5767863392829895,
        0.31822669506072998
      ],
      "min": [
        -0.84031295776367188,
        -0.98411071300506592,
        0.209981769323349
      ],
      "type": "VEC3"
    },
    {
      "bufferView": 2,
      "byteOffset": 7584,
      "componentType": 5126,
      "count": 632,
      "max": [
        0.95046597719192505,
        0.55914568901062012,
        0.97698330879211426
      ],
      "min": [
        -0.64179420471191406,
        -0.99000561237335205,
        0.1410282701253891
      ],
      "type": "VEC3"
    },
    {
      "bufferView": 3,
      "componentType": 5126,
      "count": 632,
      "max": [
        0.18108487129211426,
        0.99837827682495117,
        0.99000555276870728,
        1
      ],
      "min": [
        -0.18108697235584259,
        0.14102825522422791,
        -0.76162165403366089,
        1
      ],
      "type": "VEC4"
    },
    {
      "bufferView": 1,
      "componentType": 5126,
      "count": 632,
      "max": [
        0.48254033923149109,
        0.76365303993225098
      ],
      "min": [
        0.37201756238937378,
        0.33524468541145325
      ],
      "type": "VEC2"
    },
    {
      "bufferView": 1,
      "byteOffset": 5056,
      "componentType": 5126,
      "count": 632,
      "max": [
        0.48254033923149109,
        0.76365303993225098
      ],
      "min": [
        0.37201756238937378,
        0.33524468541145325
      ],
      "type": "VEC2"
    },
    {
      "bufferView": 0,
      "componentType": 5125,
      "count": 2376,
      "max": [
        631
      ],
      "min": [
        0
      ],
      "type": "SCALAR"
    },
    {
      "bufferView": 2,
      "byteOffset": 15168,
      "componentType": 5126,
      "count": 4,
      "max": [
        4.778233528137207,
        6.1653604507446289,
        0.15808576345443726
      ],
      "min": [
        -4.4769811630249023,
        -3.7915349006652832,
        0.15808573365211487
      ],
      "type": "VEC3"
    },
    {
      "bufferView": 2,
      "byteOffset": 15216,
      "componentType": 5126,
      "count": 4,
      "max": [
        -1.293599116714006e-09,
        -1.4965673145184155e-09,
        1
      ],
      "min": [
        -1.293599116714006e-09,
        -1.4965673145184155e-09,
        1
      ],
      "type": "VEC3"
    },
    {
      "bufferView": 3,
      "byteOffset": 10112,
      "componentType": 5126,
      "count": 4,
      "max": [
        1,
        3.4010611216217512e-07,
        1.2935996718255183e-09,
        1
      ],
      "min": [
        1,
        2.8830741253512582e-18,
        1.2935992277363084e-09,
        1
      ],
      "type": "VEC4"
    },
    {
      "bufferView": 1,
      "byteOffset": 10112,
      "componentType": 5126,
      "count": 4,
      "max": [
        0.99989998340606689,
        0.99989980459213257
      ],
      "min": [
        9.9979995866306126e-05,
        9.9979995866306126e-05
      ],
      "type": "VEC2"
    },
    {
      "bufferView": 0,
      "byteOffset": 9504,
      "componentType": 5125,
      "count": 6,
      "max": [
        3
      ],
      "min": [
        0
      ],
      "type": "SCALAR"
    },
    {
      "bufferView": 2,
      "byteOffset": 15264,
      "componentType": 5126,
      "count": 4,
      "max": [
        5.3492412567138672,
        1.8018858432769775,
        3.1209578514099121
      ],
      "min": [
        -5.0861835479736328,
        -1.1254508495330811,
        -1.9493379592895508
      ],
      "type": "VEC3"
    },
    {
      "bufferView": 2,
      "byteOffset": 15312,
      "componentType": 5126,
      "count": 4,
      "max": [
        0,
        -0.86602538824081421,
        0.5
      ],
      "min": [
        0,
        -0.86602538824081421,
        0.5
      ],
      "type": "VEC3"
    },
    {
      "bufferView": 3,
      "byteOffset": 10176,
      "componentType": 5126,
      "count": 4,
      "max": [
        1,
        0,
        0,
        1
      ],
      "min": [
        1,
        0,
        0,
        1
      ],
      "type": "VEC4"
    },
    {
      "bufferView": 1,
      "byteOffset": 10144,
      "componentType": 5126,
      "count": 4,
      "max": [
        0.99990004301071167,
        0.99990004301071167
      ],
      "min": [
        9.9980010418221354e-05,
        9.9980010418221354e-05
      ],
      "type": "VEC2"
    },
    {
      "bufferView": 0,
      "byteOffset": 9528,
      "componentType": 5125,
      "count": 6,
      "max": [
        3
      ],
      "min": [
        0
      ],
      "type": "SCALAR"
    },
    {
      "bufferView": 2,
      "byteOffset": 15360,
      "componentType": 5126,
      "count": 593,
      "max": [
        0.91156649589538574,
        0.53235501050949097,
        1.3269298076629639
      ],
      "min": [
        -0.91156691312789917,
        -1.1415594816207886,
        0.064792618155479431
      ],
      "type": "VEC3"
    },
    {
      "bufferView": 2,
      "byteOffset": 22476,
      "componentType": 5126,
      "count": 593,
      "max": [
        1,
        1,
        1
      ],
      "min": [
        -1,
        -1,
        -1
      ],
      "type": "VEC3"
    },
    {
      "bufferView": 3,
      "byteOffset": 10240,
      "componentType": 5126,
      "count": 593,
      "max": [
        1,
        1,
        1,
        1
      ],
      "min": [
        -1,
        -1,
        -0.18245021998882294,
        -1
      ],
      "type": "VEC4"
    },
    {
      "bufferView": 1,
      "byteOffset": 10176,
      "componentType": 5126,
      "count": 593,
      "max": [
        0.98676717281341553,
        0.99770081043243408
      ],
      "min": [
        0.0072203585878014565,
        0.00052925932686775923
      ],
      "type": "VEC2"
    },
    {
      "bufferView": 1,
      "byteOffset": 14920,
      "componentType": 5126,
      "count": 593,
      "max": [
        0.98676717281341553,
        0.99770081043243408
      ],
      "min": [
        0.0072203585878014565,
        0.00052925932686775923
      ],
      "type": "VEC2"
    },
    {
      "bufferView": 0,
      "byteOffset": 9552,
      "componentType": 5125,
      "count": 1593,
      "max": [
        592
      ],
      "min": [
        0
      ],
      "type": "SCALAR"
    }
  ],
  "asset": {
    "extras": {
      "author": "Chris Sweetwood (https://sketchfab.com/ChrisSweetwood)",
      "license": "CC-BY-SA-4.0 (http://creativecommons.org/licenses/by-sa/4.0/)",
      "source": "https://sketchfab.com/3d-models/computer-terminal-b3a26b00c5b04eedad0a1cdca884130f",
      "title": "Computer Terminal"
    },
    "generator": "Sketchfab-4.76.0",
    "version": "2.0"
  },
  "bufferViews": [
    {
      "buffer": 0,
      "byteLength": 15924,
      "byteOffset": 0,
      "name": "floatBufferViews",
      "target": 34963
    },
    {
      "buffer": 0,
      "byteLength": 19664,
      "byteOffset": 15924,
      "byteStride": 8,
      "name": "floatBufferViews",
      "target": 34962
    },
    {
      "buffer": 0,
      "byteLength": 29592,
      "byteOffset": 35588,
      "byteStride": 12,
      "name": "floatBufferViews",
      "target": 34962
    },
    {
      "buffer": 0,
      "byteLength": 19728,
      "byteOffset": 65180,
      "byteStride": 16,
      "name": "floatBufferViews",
      "target": 34962
    }
  ],
  "buffers": [
    {
      "byteLength": 84908,
      "uri": "scene.bin"
    }
  ],
  "images": [
    {
      "uri": "textures/BackgroundMaterial_baseColor.png"
    },
    {
      "uri": "textures/ShadowMaterial_baseColor.png"
    },
    {
      "uri": "textures/TerminalMaterial_baseColor.png"
    },
    {
      "uri": "textures/TerminalMaterial_metallicRoughness.png"
    },
    {
      "uri": "textures/TerminalMaterial_normal.png"
    },
    {
      "uri": "textures/TerminalMaterial_emissive.png"
    }
  ],
  "materials": [
    {
      "doubleSided": false,
      "emissiveFactor": [
        1,
        1,
        1
      ],
      "emissiveTexture": {
        "index": 5,
        "texCoord": 0
      },
      "name": "TerminalMaterial",
      "normalTexture": {
        "index": 4,
        "scale": 1,
        "texCoord": 0
      },
      "occlusionTexture": {
        "index": 3,
        "strength": 1,
        "texCoord": 0
      },
      "pbrMetallicRoughness": {
        "baseColorFactor": [
          1,
          1,
          1,
          1
        ],
        "baseColorTexture": {
          "index": 2,
          "texCoord": 0
        },
        "metallicFactor": 1,
        "metallicRoughnessTexture": {
          "index": 3,
          "texCoord": 0
        },
        "roughnessFactor": 1
      }
    },
    {
      "alphaMode": "BLEND",
      "doubleSided": true,
      "name": "ShadowMaterial",
      "pbrMetallicRoughness": {
        "baseColorFactor": [
          0.0464553386,
          0.1058883783,
          0.18648417910000001,
          1
        ],
        "baseColorTexture": {
          "index": 1,
          "texCoord": 0
        },
        "metallicFactor": 0,
        "roughnessFactor": 1
      }
    },
    {
      "alphaMode": "BLEND",
      "doubleSided": true,
      "name": "BackgroundMaterial",
      "pbrMetallicRoughness": {
        "baseColorFactor": [
          1,
          1,
          1,
          1
        ],
        "baseColorTexture": {
          "index": 0,
          "texCoord": 0
        },
        "metallicFactor": 0,
        "roughnessFactor": 1
      }
    }
  ],
  "meshes": [
    {
      "name": "Comp_Screen.000_TerminalMaterial_0",
      "primitives": [
        {
          "attributes": {
            "NORMAL": 1,
            "POSITION": 0,
            "TANGENT": 2,
            "TEXCOORD_0": 3,
            "TEXCOORD_1": 4
          },
          "indices": 5,
          "material": 0,
          "mode": 4
        }
      ]
    },
    {
      "name": "Plane_ShadowMaterial_0",
      "primitives": [
        {
          "attributes": {
            "NORMAL": 7,
            "POSITION": 6,
            "TANGENT": 8,
            "TEXCOORD_0": 9
          },
          "indices": 10,
          "material": 1,
          "mode": 4
        }
      ]
    },
    {
      "name": "Plane_BackgroundMaterial_0",
      "primitives": [
        {
          "attributes": {
            "NORMAL": 12,
            "POSITION": 11,
            "TANGENT": 13,
            "TEXCOORD_0": 14
          },
          "indices": 15,
          "material": 2,
          "mode": 4
        }
      ]
    },
    {
      "name": "Comp_Screen.002_TerminalMaterial_0",
      "primitives": [
        {
          "attributes": {
            "NORMAL": 17,
            "POSITION": 16,
            "TANGENT": 18,
            "TEXCOORD_0": 19,
            "TEXCOORD_1": 20
          },
          "indices": 21,
          "material": 0,
          "mode": 4
        }
      ]
    }
  ],
  "nodes": [
    {
      "children": [
        1
      ],
      "name": "RootNode (gltf orientation matrix)",
      "rotation": [
        -0.70710678118654746,
        -0,
        -0,
        0.70710678118654757
      ]
    },
    {
      "children": [
        2
      ],
      "name": "RootNode (model correction matrix)"
    },
    {
      "children": [
        3
      ],
      "matrix": [
        1,
        0,
        0,
        0,
        0,
        0,
        1,
        0,
        0,
        -1,
        0,
        0,
        0,
        0,
        0,
        1
      ],
      "name": "b462ac61a74e43db85f1b4fa07188c50.fbx"
    },
    {
      "children": [
        4,
        6,
        9
      ],
      "name": "RootNode"
    },
    {
      "children": [
        5
      ],
      "matrix": [
        212.24996948242188,
        0,
        0,
        0,
        0,
        -3.4579909228971656e-05,
        -212.24996948241906,
        0,
        0,
        212.24996948241906,
        -3.4579909228971656e-05,
        0,
        18.161306381225586,
        0,
        0,
        1
      ],
      "name": "Comp_Screen.000"
    },
    {
      "mesh": 0,
      "name": "Comp_Screen.000_TerminalMaterial_0"
    },
    {
      "children": [
        7,
        8
      ],
      "matrix": [
        120.57162475585938,
        0,
        0,
        0,
        0,
        -1.9643611020601569e-05,
        -120.57162475585778,
        0,
        0,
        120.57162475585778,
        -1.9643611020601569e-05,
        0,
        0,
        -5.373410701751709,
        -41.866615295410156,
        1
      ],
      "name": "Plane"
    },
    {
      "mesh": 1,
      "name": "Plane_ShadowMaterial_0"
    },
    {
      "mesh": 2,
      "name": "Plane_BackgroundMaterial_0"
    },
    {
      "children": [
        10
      ],
      "matrix": [
        212.24996948242188,
        0,
        0,
        0,
        0,
        -3.4579909228971656e-05,
        -212.24996948241906,
        0,
        0,
        212.24996948241906,
        -3.4579909228971656e-05,
        0,
        18.161306381225586,
        0,
        0,
        1
      ],
      "name": "Comp_Screen.002"
    },
    {
      "mesh": 3,
      "name": "Comp_Screen.002_TerminalMaterial_0"
    }
  ],
  "samplers": [
    {
      "magFilter": 9729,
      "minFilter": 9987,
      "wrapS": 10497,
      "wrapT": 10497
    }
  ],
  "scene": 0,
  "scenes": [
    {
      "name": "OSG_Scene",
      "nodes": [
        0
      ]
    }
  ],
  "textures": [
    {
      "sampler": 0,
      "source": 0
    },
    {
      "sampler": 0,
      "source": 1
    },
    {
      "sampler": 0,
      "source": 2
    },
    {
      "sampler": 0,
      "source": 3
    },
    {
      "sampler": 0,
      "source": 4
    },
    {
      "sampler": 0,
      "source": 5
    }
  ]
}

